<svg xmlns="http://www.w3.org/2000/svg" viewBox="0 0 32 32" fill="none">
<circle cx="16" cy="16" r="16" fill="white"/>
<path d="M16 6.5A9.46 9.46 0 0 0 7.84 20.7L6.5 25.5l4.92-1.28A9.5 9.5 0 1 0 16 6.5Zm5.27 13.31c-.22.61-1.31 1.15-1.82 1.24-.47.08-1.07.12-1.72-.08-.4-.12-.92-.3-1.57-.58-2.76-1.2-4.57-4.05-4.71-4.24-.14-.2-1.12-1.5-1.12-2.86 0-1.36.71-2.03.96-2.31.25-.28.55-.35.74-.35.18 0 .37 0 .53.01.17.01.4-.06.62.47.22.53.75 1.83.82 1.96.07.13.11.29.02.47-.09.18-.14.29-.28.45-.14.16-.3.35-.43.47-.14.13-.28.26-.12.52.16.27.72 1.18 1.54 1.91 1.06.95 1.96 1.25 2.23 1.39.27.13.43.11.59-.07.16-.18.68-.79.86-1.06.18-.27.36-.22.61-.13.25.09 1.59.75 1.86.89.27.13.45.2.51.31.07.11.07.62-.15 1.23Z" fill="#17A34A"/>
</svg>